<svg width="142" height="22" viewBox="0 0 142 22" fill="none" xmlns="http://www.w3.org/2000/svg">
<path d="M10.1957 21.5517H7.12693L0.222168 0.293091H4.51846L8.81475 13.7931L12.9576 0.293091H17.2539L10.1957 21.5517Z" fill="white"/>
<path d="M23.2381 3.55169H19.4021V0.448242H23.2381V3.55169ZM23.2381 21.5517H19.4021V6.03445H23.2381V21.5517Z" fill="white"/>
<path d="M32.2909 6.03442C33.3649 6.03442 34.2856 6.1896 35.0528 6.65511C35.82 6.96546 36.5872 7.58615 37.2009 8.20684C37.8147 8.82753 38.275 9.60339 38.4284 10.5344C38.7353 11.4655 38.8887 12.3965 38.8887 13.4827V15.0344H29.3755C29.3755 16.1206 29.6824 16.8965 30.2962 17.5172C30.9099 18.1379 31.6771 18.4482 32.7512 18.4482C33.5184 18.4482 34.2856 18.293 34.7459 18.1379C35.2062 17.8275 35.6665 17.5172 36.1268 17.0517L38.4284 19.3792C37.9681 19.8448 37.6612 20.1551 37.2009 20.4655C36.7406 20.7758 36.4337 21.0861 35.9734 21.2413C35.5131 21.3965 35.0528 21.5517 34.439 21.7068C33.8253 21.862 33.2115 21.862 32.5977 21.862C31.6771 21.862 30.7565 21.7068 29.9893 21.5517C29.2221 21.2413 28.4549 20.931 27.6877 20.3103C27.0739 19.6896 26.4602 18.9137 26.1533 17.8275C25.693 16.7413 25.5396 15.4999 25.5396 13.9482C25.5396 12.7068 25.693 11.6206 25.9999 10.5344C26.3067 9.60339 26.7671 8.67236 27.3808 8.05167C27.9946 7.43098 28.6083 6.81029 29.529 6.49994C30.4496 6.1896 31.3702 6.03442 32.2909 6.03442ZM32.2909 9.13787C31.6771 9.13787 31.0634 9.29304 30.603 9.60339C30.1427 9.91373 29.8358 10.2241 29.6824 10.6896C29.529 10.9999 29.529 11.1551 29.3755 11.4655C29.3755 11.7758 29.3755 11.931 29.3755 12.3965H35.2062C35.2062 12.0861 35.2062 11.7758 35.2062 11.4655C35.2062 11.1551 35.0528 10.9999 34.8993 10.6896C34.7459 10.2241 34.439 9.91373 33.9787 9.60339C33.5184 9.29304 33.0581 9.13787 32.2909 9.13787Z" fill="white"/>
<path d="M57.4549 21.5518H54.3862L51.1639 11.9311L47.9417 21.5518H44.8729L40.1163 6.03455H44.1057L46.5608 15.6552L49.6295 6.03455H52.5449L55.6137 15.6552L58.0687 6.03455H62.0581L57.4549 21.5518Z" fill="white"/>
<path d="M72.3387 3.55171H70.8043C69.8837 3.55171 69.4233 4.01723 69.4233 4.94826V6.03447H72.1852V8.98275H69.4233V21.5517H65.5874V8.98275H64.053V6.03447H65.5874V4.63792C65.5874 4.1724 65.7408 3.55171 65.8942 3.08619C66.0477 2.62068 66.3546 1.99999 66.6614 1.68964C66.9683 1.22412 67.4286 0.91378 68.0424 0.603435C68.6561 0.293091 69.2699 0.293091 70.0371 0.293091H72.1852V3.55171H72.3387Z" fill="white"/>
<path d="M79.7038 3.55169H75.8678V0.448242H79.7038V3.55169ZM79.5503 21.5517H75.7144V6.03445H79.5503V21.5517Z" fill="white"/>
<path d="M90.4444 6.03442C91.9788 6.03442 93.2063 6.49994 94.127 7.43098C94.7407 8.05167 95.201 8.67235 95.3545 9.44822C95.5079 10.2241 95.6614 10.9999 95.6614 11.7758V21.7068H91.8254V12.3965C91.8254 11.931 91.8254 11.4655 91.6719 10.9999C91.5185 10.6896 91.3651 10.3793 91.0582 10.0689C90.7513 9.91373 90.5979 9.75856 90.291 9.60339C89.9841 9.44822 89.6772 9.44822 89.3704 9.44822C89.0635 9.44822 88.7566 9.44822 88.4497 9.60339C88.1428 9.75856 87.836 9.91373 87.6825 10.0689C87.3756 10.2241 87.2222 10.5344 87.0688 10.9999C86.9153 11.3103 86.9153 11.7758 86.9153 12.3965V21.7068H83.0793V6.1896H86.7619V7.58615C87.2222 7.12063 87.836 6.65511 88.4497 6.34477C89.0635 6.03442 89.8307 6.03442 90.4444 6.03442Z" fill="white"/>
<path d="M111.619 21.5518H107.937V20.1552C107.476 20.7759 106.862 21.2414 106.249 21.3966C105.635 21.7069 105.021 21.7069 104.101 21.7069C103.333 21.7069 102.566 21.5518 101.952 21.3966C101.339 21.0863 100.725 20.7759 100.265 20.3104C99.9577 20 99.6508 19.5345 99.344 19.069C99.1905 18.6035 99.0371 18.138 98.8836 17.5173C98.7302 16.8966 98.7302 16.4311 98.7302 15.8104C98.7302 15.1897 98.7302 14.569 98.7302 13.9483C98.7302 13.3276 98.7302 12.7069 98.7302 12.0863C98.7302 11.4656 98.8836 10.8449 98.8836 10.3794C99.0371 9.75867 99.1905 9.29315 99.344 8.82763C99.4974 8.36212 99.8043 7.8966 100.265 7.58625C100.725 7.12074 101.185 6.81039 101.799 6.50005C102.413 6.1897 103.18 6.1897 103.947 6.1897C104.714 6.1897 105.482 6.34487 105.942 6.50005C106.556 6.65522 107.016 7.12074 107.63 7.74143V0.758667H111.466V21.5518H111.619ZM105.175 9.44832C104.561 9.44832 104.101 9.6035 103.794 9.75867C103.487 9.91384 103.18 10.2242 103.026 10.6897C102.873 11.1552 102.72 11.6207 102.72 12.0863C102.72 12.7069 102.566 13.1725 102.566 13.7932C102.566 14.4138 102.566 15.0345 102.72 15.5C102.72 16.1207 102.873 16.5863 103.026 16.8966C103.18 17.3621 103.487 17.6725 103.794 17.8276C104.101 17.9828 104.561 18.138 105.175 18.138C105.788 18.138 106.249 17.9828 106.556 17.8276C106.862 17.6725 107.169 17.3621 107.323 16.8966C107.476 16.4311 107.63 15.9656 107.63 15.5C107.63 14.8794 107.783 14.4138 107.783 13.7932C107.783 13.1725 107.783 12.5518 107.63 12.0863C107.63 11.4656 107.476 11 107.323 10.6897C107.169 10.2242 106.862 9.91384 106.556 9.75867C106.249 9.6035 105.788 9.44832 105.175 9.44832Z" fill="white"/>
<path d="M121.132 6.03442C122.206 6.03442 123.127 6.1896 123.894 6.65511C124.661 6.96546 125.428 7.58615 126.042 8.20684C126.656 8.82753 127.116 9.60339 127.27 10.5344C127.577 11.4655 127.73 12.3965 127.73 13.4827V15.0344H118.217C118.217 16.1206 118.524 16.8965 119.137 17.5172C119.751 18.1379 120.518 18.4482 121.593 18.4482C122.36 18.4482 123.127 18.293 123.587 18.1379C124.048 17.8275 124.508 17.5172 124.968 17.0517L127.27 19.3792C126.809 19.8448 126.503 20.1551 126.042 20.4655C125.582 20.7758 125.275 21.0861 124.815 21.2413C124.354 21.3965 123.894 21.5517 123.28 21.7068C122.667 21.862 122.053 21.862 121.439 21.862C120.518 21.862 119.598 21.7068 118.831 21.5517C118.063 21.2413 117.296 20.931 116.529 20.3103C115.915 19.6896 115.301 18.9137 114.995 17.8275C114.534 16.7413 114.381 15.4999 114.381 13.9482C114.381 12.7068 114.534 11.6206 114.841 10.5344C115.148 9.60339 115.608 8.67236 116.222 8.05167C116.836 7.43098 117.45 6.81029 118.37 6.49994C119.291 6.1896 120.212 6.03442 121.132 6.03442ZM121.132 9.13787C120.518 9.13787 119.905 9.29304 119.444 9.60339C118.984 9.91373 118.677 10.2241 118.524 10.6896C118.37 10.9999 118.37 11.1551 118.217 11.4655C118.217 11.7758 118.217 11.931 118.217 12.3965H124.048C124.048 12.0861 124.048 11.7758 124.048 11.4655C124.048 11.1551 123.894 10.9999 123.741 10.6896C123.587 10.2241 123.28 9.91373 122.82 9.60339C122.36 9.29304 121.746 9.13787 121.132 9.13787Z" fill="white"/>
<path d="M138.471 6.03455C139.238 6.03455 139.852 6.18972 140.466 6.34489C141.079 6.50006 141.54 6.96558 142.153 7.4311L139.238 10.3794C138.931 10.069 138.624 9.91386 138.317 9.75869C138.011 9.60351 137.704 9.44834 137.243 9.44834C136.937 9.44834 136.63 9.44834 136.323 9.60351C136.016 9.75868 135.709 9.91386 135.556 10.069C135.249 10.3794 135.095 10.5345 134.942 11.0001C134.788 11.3104 134.788 11.7759 134.788 12.2414V21.5518H130.799V6.03455H134.481V7.58627C134.788 7.12075 135.402 6.81041 136.016 6.34489C136.783 6.18972 137.55 6.03455 138.471 6.03455Z" fill="white"/>
</svg>
