<svg width="24" height="21" viewBox="0 0 24 21" fill="none" xmlns="http://www.w3.org/2000/svg">
<path fill-rule="evenodd" clip-rule="evenodd" d="M6 1.91681C6 0.858185 6.85819 0 7.91681 0H22.0832C23.1418 0 24 0.858185 24 1.91681C24 2.97543 23.1418 3.83362 22.0832 3.83362H7.91681C6.85818 3.83362 6 2.97543 6 1.91681ZM0 10.4481C0 9.38946 0.858212 8.53125 1.91687 8.53125H22.0831C23.1418 8.53125 24 9.38946 24 10.4481C24 11.5068 23.1418 12.365 22.0831 12.365H1.91687C0.858212 12.365 0 11.5068 0 10.4481ZM24 18.9794C24 17.9207 23.1418 17.0625 22.0831 17.0625H11.9169C10.8582 17.0625 10 17.9207 10 18.9794C10 20.038 10.8582 20.8962 11.9169 20.8962H22.0831C23.1418 20.8962 24 20.038 24 18.9794Z" fill="white"/>
</svg>
