<?xml version="1.0" encoding="utf-8"?>
<!-- Generator: Adobe Illustrator 22.0.0, SVG Export Plug-In . SVG Version: 6.00 Build 0)  -->
<svg version="1.1" id="Capa_1" xmlns="http://www.w3.org/2000/svg" xmlns:xlink="http://www.w3.org/1999/xlink" x="0px" y="0px"
	 viewBox="0 0 255.4 255.4" style="enable-background:new 0 0 255.4 255.4;" xml:space="preserve">
<style type="text/css">
	.st0{fill:#6CBFDC;}
</style>
<g>
	<path class="st0" d="M41.9,33.7l22.4,22.4c1.2,1.2,2.7,1.8,4.2,1.8s3.1-0.6,4.2-1.8c2.3-2.3,2.3-6.1,0-8.5L60.1,34.9h58.6
		c3.3,0,6-2.7,6-6s-2.7-6-6-6H61.2l12.2-12.2c2.3-2.3,2.3-6.1,0-8.5c-2.3-2.3-6.1-2.3-8.5,0l-23,23C39.6,27.6,39.6,31.4,41.9,33.7z"
		/>
	<path class="st0" d="M45.1,125.8c-5.1,30.4,1.7,60.6,20.2,89.7l3.1,23.3c1.2,9.4,9.3,16.5,18.8,16.5l78.6,0.1
		c9.9,0,18.2-7.7,18.9-17.6l1.7-22.1c3.7-5.5,11.6-17.6,18.1-31.4c9.9-21,12.9-37.4,9.1-50.2c-2.4-8.3-7.7-14.7-15.3-18.8l0-33.7
		l0.1-53.2c0-8-2.8-15-8-20.2C185.3,3,177.8,0,170.1,0c-7.2,0-14.1,2.5-19.2,7.1c-5.9,5.2-9.2,12.8-9.2,21.2l0,36.8
		c-0.2,0-0.4,0-0.6,0c-10.1,0-19.1,4.1-25.6,11.5c-2.5-0.5-4.9-0.7-7.4-0.7c-11,0-20.6,4.8-27.2,13.7c-5.2,0.6-11.7,2.2-18.1,6.4
		C56.3,100.6,47.9,109.2,45.1,125.8z M56.9,127.8c3.9-22.9,20.3-26,27.4-26.2c2-0.1,3.8-1.1,4.9-2.8c5.4-8.5,12.6-10.7,18.8-10.7
		c2.8,0,5.4,0.5,7.5,1c0.6,0.2,1.2,0.2,1.8,0.2c2.2,0,4.3-1,5.6-2.8c5.3-7.3,12.2-9.3,18.1-9.3c1.6,0,3.1,0.1,4.5,0.4
		c0.4,0.1,0.7,0.1,1.1,0.1c3.8,0,7-3.1,7-7l0.1-42.3c0-10.9,8.2-16.4,16.4-16.4c8.2,0,16.4,5.5,16.4,16.4c0,18.4-0.1,73.5-0.1,90.1
		c0,2.8,1.7,5.3,4.3,6.4c32.5,13.6-7.6,74.6-14.8,85c-0.7,1-1.1,2.2-1.2,3.4l-1.8,23.3c-0.3,3.7-3.3,6.3-7,6.3c0,0,0,0,0,0L87.2,243
		c-3.5,0-6.5-2.4-6.9-5.9l-3.2-24.4c-0.1-1-0.5-2-1.1-2.9C55,177.4,53.4,149,56.9,127.8z"/>
</g>
</svg>
